<?xml version="1.0" encoding="utf-8"?>
<!-- Generator: Adobe Illustrator 26.0.3, SVG Export Plug-In . SVG Version: 6.00 Build 0)  -->
<svg version="1.0" id="katman_1" xmlns="http://www.w3.org/2000/svg" xmlns:xlink="http://www.w3.org/1999/xlink" x="0px" y="0px"
	 viewBox="0 0 711.1 524.9" style="enable-background:new 0 0 711.1 524.9;" xml:space="preserve">
<style type="text/css">
	.st0{fill:#8a96ae;}
</style>
<path class="st0" d="M61,229.8c9.8-19.4,33.8-29.9,54.7-24c20.4,4.9,36,24.7,35.7,45.7c0.5,12.9-4.9,25.7-13.9,34.8
	c-11.2,11.4-22.6,22.7-34,34c-4.8-5.4-12.3-9.7-13.4-17.4c-1-8,6.1-13,11-18c6.6-6.7,13.2-13.4,19.5-20.3c9-11,2.2-29.6-11.5-32.9
	c-13.2-4.3-28.1,7.6-26.9,21.4c0.2,11.3,10.4,18,17.3,25.4c-6.5,6.5-14.8,12.6-15.3,22.6c-6.4-6.9-13.7-12.9-19.4-20.4
	C53.9,266.5,52.5,245.7,61,229.8L61,229.8z M250.3,233.7c4.7,0,9.5,0,14.2,0c-0.1,2-0.2,4-0.4,6c3.1-2.5,6.1-5.5,10.1-6.5
	c4.4-0.9,9-0.2,13.4,0.2c-1.5,4.5-3.1,8.9-4.8,13.3c-6.7-1.3-15.3,0.4-17.2,8c-2.4,12.5,0.4,25.4-1.4,38c-1.8,6.2-9.1,4.8-14,5
	C250.3,276.4,250.3,255,250.3,233.7L250.3,233.7z M435.8,261.3c1.7-16,16.8-29.3,32.9-28.6c8-0.4,15.3,3.4,21.5,8.1
	c-3.2,3.5-6.4,6.9-9.6,10.3c-3.7-1.9-7.5-4-11.8-4.2c-8,0-15.8,5.5-18,13.3c-3.6,10.2,4.3,22,14.8,23.5c5.6,1.2,10.6-2.4,16.2-2.3
	c4,1.6,6.4,5.5,9.3,8.5c-9.3,7.8-22.5,11-34.1,6.5C442.9,291.6,433.5,276.1,435.8,261.3L435.8,261.3z M567.7,233.7h14.2
	c0,1.5-0.1,4.5-0.2,6c8.2-10,23.8-8.4,32.2,0.5c8.8-8.5,23.7-10.3,33.5-2.6c6.6,5.3,8.6,14.2,8.1,22.3c-0.3,11,0.4,22.1-0.3,33.1
	c-1.6,6.2-9.1,4.7-13.9,4.9c-0.1-12.6,0.1-25.3,0-37.9c-0.2-4.9-1.5-11.1-6.8-12.8c-6.9-2.8-14.9,2.6-15.4,9.9
	c-0.6,13.6,0,27.1-0.2,40.7h-14.6c0-12.1,0-24.2,0-36.3c-0.1-3.9,0.2-8.4-2.7-11.4c-4.1-5.4-13.4-4.4-16.9,1.2
	c-2.6,3.4-2.6,7.9-2.6,11.9c0.1,11.5,0.1,23.1,0.1,34.6h-14.6C567.6,276.4,567.7,255,567.7,233.7L567.7,233.7z M225.6,214.9
	c2.3-5.6,9.1-3.9,13.9-4.3c0,29,0,58,0,87h-14.2l0.1-5.8c-4.6,2.7-9.2,5.5-14.6,6.3c-13.6,2.1-27.8-5.6-33.7-17.9
	c-7-13.7-3-32,9.6-41c10.9-8.6,26.8-8.4,38.4-1.4C225.3,230.2,224.1,222.4,225.6,214.9L225.6,214.9z M203.2,247.4
	c-7.4,1.4-13.4,7.6-14.8,15c-2,10,5.7,20.4,15.8,21.5c10.8,1.8,21.6-8,20.8-19C224.9,254,213.7,245.1,203.2,247.4L203.2,247.4z
	 M309.7,234c15.1-4.7,32.8,2.8,39.3,17.3c5.8,11.8,3.5,26.8-5.3,36.4c-8.6,9.6-23,13.4-35.1,9c-13.3-4.3-22.9-17.9-22.2-32
	C286.3,250.9,296.3,237.9,309.7,234L309.7,234z M314.5,247.6c-7.2,1.8-12.9,8.3-13.8,15.7c-1.5,10.4,7.6,20.9,18.2,20.7
	c9.7,0.5,18.6-7.9,18.8-17.5C338.9,254.6,326,244,314.5,247.6L314.5,247.6z M361,233.7h14.2c0,1.4-0.1,4.3-0.1,5.7
	c5.7-3.6,11.9-7,18.8-6.6c12.2-0.5,23.9,6.9,29.4,17.7c6.8,13,3.7,30.2-7.5,39.7c-10.8,10.1-27.9,10.6-40.2,3.1
	c-0.2,7.5,0.7,15.1-0.5,22.6c-2,5.8-9.2,4.5-13.9,4.9C360.9,291.7,361,262.7,361,233.7z M389.4,247.6c-6.6,1.7-12,7.2-13.5,13.8
	c-2.1,8.9,3.2,18.6,11.8,21.5c10.9,4.5,24.5-4.5,24.5-16.4C413.3,254.7,400.8,244.2,389.4,247.6L389.4,247.6z M497.6,245.6
	c6.6-9,18.1-14,29.2-12.8c15.5,0.8,29,14.5,29.8,29.9c0.4,11.7,0,23.3,0.1,35c-5.3,0.1-11.4,0.7-14.8-4.3c-5.8,2.9-12,5.3-18.5,5.1
	c-12,0-23.6-7.3-29-18C488.9,269.6,490.1,255.4,497.6,245.6L497.6,245.6z M519.2,247.7c-6.6,1.8-12,7.5-13.3,14.2
	c-2.6,10.2,5.7,21.1,16.1,22c10.7,1.4,21.2-8.3,20.3-19.2C542.3,253.5,530,244.4,519.2,247.7L519.2,247.7z"/>
</svg>
